<svg width="24" height="24" viewBox="0 0 24 24" fill="none" xmlns="http://www.w3.org/2000/svg">
<path d="M17.6003 6.27247H16.8999V5H15.5003V6.27247H8.49974V5H7.10005V6.27247H6.39968C6.02862 6.27348 5.67309 6.40799 5.41081 6.64661C5.14853 6.88524 5.00083 7.20855 5 7.54589V17.7275C5.00111 18.0647 5.14893 18.3878 5.41118 18.6262C5.67343 18.8646 6.02881 18.999 6.39968 19H17.6003C17.9712 18.999 18.3266 18.8646 18.5888 18.6262C18.8511 18.3878 18.9989 18.0647 19 17.7275V7.54589C18.9992 7.20855 18.8515 6.88524 18.5892 6.64661C18.3269 6.40799 17.9714 6.27348 17.6003 6.27247ZM17.6003 17.7275H6.39968V9.45507H17.6003V17.7275Z" fill="black"/>
</svg>
