<svg width="24" height="24" viewBox="0 0 24 24" fill="none" xmlns="http://www.w3.org/2000/svg">
<path fill-rule="evenodd" clip-rule="evenodd" d="M12 3C10.22 3 8.47991 3.52784 6.99987 4.51678C5.51983 5.50571 4.36628 6.91131 3.68509 8.55585C3.0039 10.2004 2.82567 12.01 3.17294 13.7558C3.5202 15.5016 4.37737 17.1053 5.63604 18.364C6.89471 19.6226 8.49836 20.4798 10.2442 20.8271C11.99 21.1743 13.7996 20.9961 15.4442 20.3149C17.0887 19.6337 18.4943 18.4802 19.4832 17.0001C20.4722 15.5201 21 13.78 21 12C21.0011 10.8178 20.769 9.647 20.3171 8.55459C19.8652 7.46218 19.2023 6.4696 18.3663 5.63366C17.5304 4.79773 16.5378 4.13483 15.4454 3.68292C14.353 3.231 13.1822 2.99894 12 3ZM15.231 16.5L16.5 15.231L13.269 12L16.5 8.769L15.231 7.5L12 10.731L8.769 7.5L7.5 8.769L10.731 12L7.5 15.231L8.769 16.5L12 13.269L15.231 16.5Z" fill="black"/>
</svg>
