<svg width="24" height="24" viewBox="0 0 24 24" fill="none" xmlns="http://www.w3.org/2000/svg">
<path d="M14.5792 5H6.36831C6.00548 5.00126 5.65792 5.13576 5.40154 5.37413C5.14517 5.6125 5.00081 5.93536 5 6.27221V15.1796H6.36831V6.27221H14.5792V5ZM16.6368 7.54441H9.10494C8.74139 7.54568 8.39321 7.6807 8.13672 7.91989C7.88023 8.15909 7.73635 8.48293 7.73663 8.82044V17.7278C7.73744 18.0646 7.8818 18.3875 8.13817 18.6259C8.39454 18.8642 8.7421 18.9987 9.10494 19H16.6317C16.9945 18.9987 17.3421 18.8642 17.5985 18.6259C17.8548 18.3875 17.9992 18.0646 18 17.7278V8.82044C18.0003 8.48293 17.8564 8.15909 17.5999 7.91989C17.3434 7.6807 16.9952 7.54568 16.6317 7.54441H16.6368ZM16.6368 17.724H9.10494V8.82044H16.6317L16.6368 17.724Z" fill="black"/>
</svg>
