<svg width="24" height="24" viewBox="0 0 24 24" fill="none" xmlns="http://www.w3.org/2000/svg">
<g clip-path="url(#clip0_180_780)">
<path d="M14.06 9.02009L14.98 9.94009L5.92 19.0001H5V18.0801L14.06 9.02009ZM17.66 3.00009C17.3977 3.00119 17.1463 3.10534 16.96 3.29009L15.13 5.12009L18.88 8.87009L20.71 7.04009C20.8962 6.85273 21.0008 6.59927 21.0008 6.33509C21.0008 6.0709 20.8962 5.81745 20.71 5.63009L18.37 3.29009C18.2772 3.19659 18.1665 3.12273 18.0445 3.07291C17.9225 3.02309 17.7917 2.99832 17.66 3.00009ZM14.06 6.19009L3 17.2501V21.0001H6.75L17.81 9.94009L14.06 6.19009Z" fill="black"/>
</g>
<defs>
<clipPath id="clip0_180_780">
<rect width="24" height="24" fill="white"/>
</clipPath>
</defs>
</svg>
