<svg width="24" height="24" viewBox="0 0 24 24" fill="none" xmlns="http://www.w3.org/2000/svg">
<path d="M5 16.0845V19H7.917L16.517 10.4043L13.6 7.48675L5 16.0845ZM18.775 8.14742C18.8476 8.07542 18.9052 7.98978 18.9445 7.89543C18.9838 7.80108 19.004 7.69989 19.004 7.59769C19.004 7.4955 18.9838 7.39431 18.9445 7.29996C18.9052 7.20561 18.8476 7.11997 18.775 7.04797L16.955 5.22888C16.883 5.15635 16.7973 5.09879 16.7029 5.05951C16.6085 5.02022 16.5072 5 16.405 5C16.3028 5 16.2015 5.02022 16.1071 5.05951C16.0127 5.09879 15.927 5.15635 15.855 5.22888L14.435 6.65417L17.352 9.56971L18.775 8.14742Z" fill="black"/>
</svg>
