<svg width="24" height="24" viewBox="0 0 24 24" fill="none" xmlns="http://www.w3.org/2000/svg">
<path d="M6.4443 3.68531C8.08879 2.58649 10.0222 2 12 2C13.3136 1.99882 14.6144 2.25667 15.8282 2.7588C17.042 3.26093 18.1449 3.99747 19.0737 4.9263C20.0025 5.85512 20.7391 6.95798 21.2412 8.17177C21.7433 9.38556 22.0012 10.6865 22 12C22 13.9778 21.4135 15.9112 20.3147 17.5557C19.2159 19.2002 17.6541 20.4819 15.8268 21.2388C13.9996 21.9957 11.9889 22.1937 10.0491 21.8079C8.10929 21.422 6.32746 20.4696 4.92894 19.0711C3.53041 17.6725 2.578 15.8907 2.19215 13.9509C1.8063 12.0111 2.00433 10.0004 2.76121 8.17317C3.51809 6.34591 4.79981 4.78412 6.4443 3.68531Z" fill="#D0011B"/>
<path d="M17 15.59L15.59 17L12 13.41L8.41 17L7 15.59L10.59 12L7 8.41L8.41 7L12 10.59L15.59 7L17 8.41L13.41 12L17 15.59Z" fill="white"/>
</svg>
