<svg width="24" height="24" viewBox="0 0 24 24" fill="none" xmlns="http://www.w3.org/2000/svg">
<path d="M11.997 4.00008C9.89711 4.06639 7.90137 4.93021 6.41579 6.41579C4.93021 7.90137 4.06639 9.89711 4.00008 11.997C3.99545 13.0485 4.19913 14.0904 4.59937 15.0628C4.99962 16.0351 5.58849 16.9185 6.332 17.662C7.0755 18.4055 7.95892 18.9944 8.93124 19.3946C9.90356 19.7949 10.9455 19.9985 11.997 19.9939C13.0585 20.0361 14.1172 19.8582 15.1065 19.4712C16.0959 19.0843 16.9944 18.4968 17.7456 17.7456C18.4968 16.9944 19.0843 16.0959 19.4712 15.1065C19.8582 14.1172 20.0361 13.0585 19.9939 11.997C19.9985 10.9455 19.7949 9.90356 19.3946 8.93124C18.9944 7.95892 18.4055 7.0755 17.662 6.332C16.9185 5.58849 16.0351 4.99962 15.0628 4.59937C14.0904 4.19913 13.0485 3.99545 11.997 4.00008ZM12.6637 16.2174H11.3303V14.663H12.6627L12.6637 16.2174ZM12.6637 12.6627H11.3303V8.22045H12.6627L12.6637 12.6627Z" fill="#D0011B"/>
</svg>
