<svg width="24" height="24" viewBox="0 0 24 24" fill="none" xmlns="http://www.w3.org/2000/svg">
<g clip-path="url(#clip0_180_770)">
<path d="M20 5V4C20 3.7348 19.8946 3.4804 19.7071 3.2929C19.5196 3.1054 19.2652 3 19 3H17C16.7348 3 16.4804 3.1054 16.2929 3.2929C16.1054 3.4804 16 3.7348 16 4V5H15V9C15 9.2652 15.1054 9.5196 15.2929 9.7071C15.4804 9.8946 15.7348 10 16 10H17V17C17 17.53 16.7893 18.039 16.4142 18.414C16.0391 18.789 15.5304 19 15 19C14.4696 19 13.9609 18.789 13.5858 18.414C13.2107 18.039 13 17.53 13 17V7C13 5.9391 12.5786 4.9217 11.8284 4.1716C11.0783 3.4214 10.0609 3 9 3C7.93913 3 6.92172 3.4214 6.17157 4.1716C5.42143 4.9217 5 5.9391 5 7V14H4C3.73478 14 3.48043 14.1054 3.29289 14.2929C3.10536 14.4804 3 14.7348 3 15V19H4V20C4 20.265 4.10536 20.52 4.29289 20.707C4.48043 20.895 4.73478 21 5 21H7C7.26522 21 7.51957 20.895 7.70711 20.707C7.89464 20.52 8 20.265 8 20V19H9V15C9 14.7348 8.89464 14.4804 8.70711 14.2929C8.51957 14.1054 8.26522 14 8 14H7V7C7 6.4696 7.21071 5.9609 7.58579 5.5858C7.96086 5.2107 8.46957 5 9 5C9.53043 5 10.0391 5.2107 10.4142 5.5858C10.7893 5.9609 11 6.4696 11 7V17C11 18.061 11.4214 19.078 12.1716 19.828C12.9217 20.579 13.9391 21 15 21C16.0609 21 17.0783 20.579 17.8284 19.828C18.5786 19.078 19 18.061 19 17V10H20C20.2652 10 20.5196 9.8946 20.7071 9.7071C20.8946 9.5196 21 9.2652 21 9V5H20Z" fill="black"/>
</g>
<defs>
<clipPath id="clip0_180_770">
<rect width="24" height="24" fill="white"/>
</clipPath>
</defs>
</svg>
