<svg width="24" height="24" viewBox="0 0 24 24" fill="none" xmlns="http://www.w3.org/2000/svg">
<g clip-path="url(#clip0_240_1512)">
<g clip-path="url(#clip1_240_1512)">
<path d="M11.8929 8.22454C14.2679 8.22454 16.3859 9.55927 17.4198 11.671C17.0501 12.4355 16.53 13.0935 15.9097 13.6261L16.7932 14.5097C17.6642 13.7389 18.3535 12.7739 18.7859 11.671C17.7018 8.9201 15.0261 6.97128 11.8929 6.97128C11.0971 6.97128 10.3326 7.09661 9.61201 7.32846L10.646 8.3624C11.0533 8.28094 11.4668 8.22454 11.8929 8.22454ZM11.2225 8.9389L12.5196 10.236C12.8768 10.3927 13.165 10.6809 13.3217 11.0381L14.6188 12.3352C14.6689 12.1222 14.7065 11.8966 14.7065 11.6648C14.7128 10.1107 13.447 8.85118 11.8929 8.85118C11.6611 8.85118 11.4418 8.88251 11.2225 8.9389ZM5.6329 6.88982L7.31227 8.56919C6.29086 9.37128 5.48251 10.4366 5 11.671C6.08407 14.4219 8.75979 16.3708 11.8929 16.3708C12.8454 16.3708 13.7603 16.189 14.6 15.8569L16.7431 18L17.6266 17.1164L6.51645 6L5.6329 6.88982ZM10.3326 11.5896L11.9681 13.2251C11.9431 13.2313 11.918 13.2376 11.8929 13.2376C11.0282 13.2376 10.3264 12.5358 10.3264 11.671C10.3264 11.6397 10.3326 11.6209 10.3326 11.5896ZM8.20209 9.45901L9.29869 10.5556C9.15457 10.9003 9.07311 11.2762 9.07311 11.671C9.07311 13.2251 10.3389 14.4909 11.8929 14.4909C12.2877 14.4909 12.6637 14.4094 13.0021 14.2653L13.6162 14.8794C13.0648 15.0298 12.4882 15.1175 11.8929 15.1175C9.51802 15.1175 7.4 13.7828 6.36606 11.671C6.8047 10.7749 7.44386 10.0355 8.20209 9.45901Z" fill="black"/>
</g>
</g>
<defs>
<clipPath id="clip0_240_1512">
<rect width="24" height="24" fill="white"/>
</clipPath>
<clipPath id="clip1_240_1512">
<rect width="24" height="24" fill="white"/>
</clipPath>
</defs>
</svg>
