<svg width="24" height="24" viewBox="0 0 24 24" fill="none" xmlns="http://www.w3.org/2000/svg">
<g clip-path="url(#clip0_224_2368)">
<g clip-path="url(#clip1_224_2368)">
<path d="M12.3333 8.33333C14.86 8.33333 17.1133 9.75333 18.2133 12C17.1133 14.2467 14.8667 15.6667 12.3333 15.6667C9.8 15.6667 7.55333 14.2467 6.45333 12C7.55333 9.75333 9.80667 8.33333 12.3333 8.33333ZM12.3333 7C9 7 6.15333 9.07333 5 12C6.15333 14.9267 9 17 12.3333 17C15.6667 17 18.5133 14.9267 19.6667 12C18.5133 9.07333 15.6667 7 12.3333 7ZM12.3333 10.3333C13.2533 10.3333 14 11.08 14 12C14 12.92 13.2533 13.6667 12.3333 13.6667C11.4133 13.6667 10.6667 12.92 10.6667 12C10.6667 11.08 11.4133 10.3333 12.3333 10.3333ZM12.3333 9C10.68 9 9.33333 10.3467 9.33333 12C9.33333 13.6533 10.68 15 12.3333 15C13.9867 15 15.3333 13.6533 15.3333 12C15.3333 10.3467 13.9867 9 12.3333 9Z" fill="black"/>
</g>
</g>
<defs>
<clipPath id="clip0_224_2368">
<rect width="24" height="24" fill="white"/>
</clipPath>
<clipPath id="clip1_224_2368">
<rect width="24" height="24" fill="white"/>
</clipPath>
</defs>
</svg>
