<svg width="24" height="24" viewBox="0 0 24 24" fill="none" xmlns="http://www.w3.org/2000/svg">
<g clip-path="url(#clip0_180_786)">
<path d="M22 4.14269V19.8557C22 20.4242 21.7742 20.9694 21.3722 21.3714C20.9702 21.7734 20.4249 21.9992 19.8564 21.9992H16.0492V14.0893H18.7548L19.143 11.0713H16.0492V9.14229C16.0492 8.26544 16.2883 7.67397 17.5447 7.67397H19.139V4.97728C18.365 4.89499 17.5872 4.85481 16.8089 4.85691C14.5051 4.85691 12.9251 6.26305 12.9251 8.84815V11.0761H10.2108V14.0941H12.9299V22H4.14277C3.86127 21.9999 3.58255 21.9443 3.32252 21.8365C3.06249 21.7287 2.82625 21.5707 2.62727 21.3716C2.4283 21.1725 2.27049 20.9362 2.16286 20.6761C2.05524 20.416 1.9999 20.1372 2 19.8557V4.14269C2.00021 3.57448 2.22603 3.0296 2.62784 2.62781C3.02964 2.22603 3.57454 2.00021 4.14277 2H19.8564C20.4248 2 20.9699 2.22572 21.3719 2.62753C21.7739 3.02934 21.9998 3.57434 22 4.14269Z" fill="black"/>
</g>
<defs>
<clipPath id="clip0_180_786">
<rect width="24" height="24" fill="white"/>
</clipPath>
</defs>
</svg>
