<svg width="24" height="24" viewBox="0 0 24 24" fill="none" xmlns="http://www.w3.org/2000/svg">
<g clip-path="url(#clip0_180_774)">
<path d="M12 21L10.695 19.7052C6.06016 15.1243 3.00023 12.1031 3.00023 8.39527C2.99385 7.68509 3.11754 6.97981 3.36403 6.32259C3.61054 5.6644 3.9749 5.06703 4.43582 4.56481C4.89672 4.06258 5.44493 3.66532 6.04836 3.39655C6.65178 3.12778 7.29831 2.99338 7.95011 3.00025C8.72037 3.00712 9.48042 3.19252 10.179 3.54663C10.8776 3.90073 11.4986 4.41276 12 5.05035C12.5015 4.41276 13.1224 3.90073 13.821 3.54663C14.5196 3.19252 15.2796 3.00712 16.0499 3.00025C16.7017 2.99338 17.3482 3.12778 17.9516 3.39655C18.5551 3.66532 19.1032 4.06258 19.5642 4.56481C20.0251 5.06703 20.3895 5.6644 20.636 6.32259C20.8825 6.97981 21.0062 7.68509 20.9998 8.39527C20.9998 12.1031 17.9398 15.1243 13.305 19.715L12 21Z" fill="black"/>
</g>
<defs>
<clipPath id="clip0_180_774">
<rect width="24" height="24" fill="white"/>
</clipPath>
</defs>
</svg>
