<svg width="24" height="24" viewBox="0 0 24 24" fill="none" xmlns="http://www.w3.org/2000/svg">
<path d="M6.15929 7.20806C7.67901 9.15006 10.4898 12.7501 10.4898 12.7501V17.2501C10.4904 17.4488 10.5701 17.6393 10.7116 17.7798C10.8532 17.9203 11.045 17.9995 11.2452 18.0001H12.7558C12.9558 17.9993 13.1473 17.92 13.2887 17.7795C13.43 17.6389 13.5096 17.4486 13.5101 17.2501V12.7501C13.5101 12.7501 16.3149 9.15006 17.8407 7.20806C17.9279 7.09696 17.9818 6.96364 17.9962 6.82346C18.0105 6.68328 17.9846 6.54194 17.9216 6.41571C17.8585 6.28947 17.7609 6.18349 17.6398 6.10995C17.5188 6.03642 17.3793 5.99832 17.2374 6.00006H6.75147C6.61052 6.0004 6.47249 6.04 6.35308 6.11436C6.23367 6.18871 6.13767 6.29485 6.07598 6.42068C6.01429 6.54652 5.9894 6.68702 6.00412 6.82621C6.01885 6.9654 6.07261 7.0977 6.15929 7.20806Z" fill="black"/>
</svg>
