<svg width="24" height="24" viewBox="0 0 24 24" fill="none" xmlns="http://www.w3.org/2000/svg">
<g clip-path="url(#clip0_180_784)">
<path d="M12.0011 2C9.60176 2.024 7.28978 2.90399 5.48159 4.48199C3.67341 6.06099 2.48789 8.23401 2.1386 10.609C1.74382 12.99 2.19862 15.434 3.42332 17.512C4.64803 19.591 6.56453 21.172 8.83707 21.979C9.33665 22.069 9.52399 21.761 9.52399 21.492C9.52399 21.249 9.5115 20.441 9.5115 19.582C7.0053 20.056 6.35585 18.955 6.15602 18.376C5.93619 17.818 5.58484 17.321 5.13189 16.928C4.78218 16.736 4.28261 16.262 5.1194 16.249C5.44158 16.287 5.74979 16.402 6.01744 16.585C6.28508 16.769 6.5041 17.015 6.65559 17.302C6.79008 17.552 6.97281 17.773 7.1932 17.951C7.41358 18.13 7.66725 18.264 7.9395 18.344C8.20981 18.423 8.49319 18.446 8.77262 18.412C9.05206 18.378 9.32179 18.288 9.56562 18.147C9.6075 17.629 9.83344 17.142 10.2026 16.776C7.97947 16.52 5.65644 15.635 5.65644 11.71C5.64213 10.698 6.00754 9.71699 6.68057 8.95999C6.37531 8.07399 6.41093 7.10499 6.78049 6.24399C6.78049 6.24399 7.61311 5.97501 9.52815 7.29501C11.1615 6.83301 12.8906 6.83301 14.5239 7.29501C16.4348 5.96101 17.2716 6.24399 17.2716 6.24399C17.6412 7.10499 17.6768 8.07399 17.3715 8.95999C18.048 9.71699 18.4138 10.701 18.3956 11.716C18.3956 15.65 16.0643 16.522 13.8378 16.778C14.0773 17.029 14.2612 17.328 14.3774 17.654C14.4936 17.981 14.5396 18.329 14.5123 18.675C14.5123 20.046 14.4998 21.148 14.4998 21.494C14.4998 21.763 14.6871 22.083 15.1867 21.98C17.4554 21.168 19.3667 19.583 20.5864 17.503C21.8061 15.423 22.2566 12.981 21.8593 10.602C21.5074 8.22899 20.3215 6.05899 18.5146 4.48199C16.7076 2.90599 14.3982 2.026 12.0011 2Z" fill="black"/>
</g>
<defs>
<clipPath id="clip0_180_784">
<rect width="24" height="24" fill="white"/>
</clipPath>
</defs>
</svg>
