<svg width="24" height="24" viewBox="0 0 24 24" fill="none" xmlns="http://www.w3.org/2000/svg">
<g clip-path="url(#clip0_180_764)">
<path d="M19 5V19H5V5H19ZM19 3H5C4.47005 3.00158 3.96227 3.21281 3.58753 3.58754C3.2128 3.96227 3.00158 4.47005 3 5V19C3.00158 19.5299 3.2128 20.0377 3.58753 20.4125C3.96227 20.7872 4.47005 20.9984 5 21H19C19.5299 20.9984 20.0377 20.7872 20.4125 20.4125C20.7872 20.0377 20.9984 19.5299 21 19V5C20.9984 4.47005 20.7872 3.96227 20.4125 3.58754C20.0377 3.21281 19.5299 3.00158 19 3ZM14.14 11.86L11.14 15.73L9 13.14L6 17H18L14.14 11.86Z" fill="black"/>
</g>
<defs>
<clipPath id="clip0_180_764">
<rect width="24" height="24" fill="white"/>
</clipPath>
</defs>
</svg>
