<svg width="24" height="24" viewBox="0 0 24 24" fill="none" xmlns="http://www.w3.org/2000/svg">
<g clip-path="url(#clip0_180_778)">
<path d="M15.0005 9H12.3345V10.333H15.0005C15.5309 10.333 16.0396 10.5437 16.4147 10.9188C16.7898 11.2939 17.0005 11.8026 17.0005 12.333C17.0005 12.8634 16.7898 13.3721 16.4147 13.7472C16.0396 14.1223 15.5309 14.333 15.0005 14.333H12.3345V15.666H15.0005C15.8845 15.666 16.7322 15.3148 17.3573 14.6898C17.9823 14.0647 18.3335 13.217 18.3335 12.333C18.3335 11.449 17.9823 10.6013 17.3573 9.97621C16.7322 9.35115 15.8845 9 15.0005 9ZM11.0005 14.333H8.3335C7.80307 14.333 7.29436 14.1223 6.91929 13.7472C6.54421 13.3721 6.3335 12.8634 6.3335 12.333C6.3335 11.8026 6.54421 11.2939 6.91929 10.9188C7.29436 10.5437 7.80307 10.333 8.3335 10.333H11.0005V9H8.3335C7.4494 9 6.60151 9.35121 5.97636 9.97636C5.35121 10.6015 5 11.4494 5 12.3335C5 13.2176 5.35121 14.0655 5.97636 14.6906C6.60151 15.3158 7.4494 15.667 8.3335 15.667H11.0005V14.333ZM9.0005 11.667H14.3335V13H9.0005V11.667Z" fill="black"/>
</g>
<defs>
<clipPath id="clip0_180_778">
<rect width="24" height="24" fill="white"/>
</clipPath>
</defs>
</svg>
