<svg width="24" height="24" viewBox="0 0 24 24" fill="none" xmlns="http://www.w3.org/2000/svg">
<g clip-path="url(#clip0_180_790)">
<path d="M20.5716 2H3.42358C3.04376 2.00295 2.68061 2.15641 2.41375 2.42674C2.14689 2.69707 1.99811 3.06219 2.00002 3.44206V20.5579C1.99811 20.9378 2.14689 21.3029 2.41375 21.5733C2.68061 21.8436 3.04376 21.997 3.42358 22H20.5716C20.7601 21.9992 20.9466 21.9612 21.1204 21.8883C21.2942 21.8153 21.4519 21.7089 21.5846 21.5749C21.7172 21.441 21.8222 21.2823 21.8934 21.1078C21.9647 20.9333 22.0009 20.7464 22 20.5579V3.44206C22.0009 3.25356 21.9647 3.06673 21.8934 2.89222C21.8222 2.71772 21.7172 2.55898 21.5846 2.42506C21.4519 2.29114 21.2942 2.18467 21.1204 2.11174C20.9466 2.0388 20.7601 2.00084 20.5716 2ZM8.04417 19.143H5.07988V9.59855H8.04815V19.143H8.04417ZM6.56162 8.29758C6.22191 8.29742 5.88987 8.19657 5.60744 8.00776C5.32501 7.81896 5.10488 7.55067 4.97484 7.23679C4.8448 6.92292 4.8107 6.57754 4.87683 6.24428C4.94297 5.91103 5.10639 5.60486 5.34644 5.36445C5.58648 5.12404 5.89239 4.96018 6.22551 4.89357C6.55862 4.82696 6.90401 4.86059 7.21803 4.99021C7.53205 5.11982 7.80061 5.33962 7.98979 5.62181C8.17896 5.90401 8.28026 6.23596 8.28089 6.57571C8.28121 6.80172 8.23697 7.02557 8.15071 7.23446C8.06445 7.44335 7.93786 7.63319 7.77818 7.79311C7.6185 7.95303 7.42886 8.0799 7.22011 8.16647C7.01136 8.25303 6.7876 8.29758 6.56162 8.29758ZM19.1553 19.1462H16.1878V14.5003C16.1878 13.393 16.1655 11.9693 14.6479 11.9693C13.1031 11.9693 12.8664 13.1746 12.8664 14.4206V19.1438H9.90531V9.59855H12.7484V10.9019H12.7883C13.0737 10.4155 13.4854 10.0155 13.9798 9.74432C14.4743 9.47316 15.0329 9.34097 15.5964 9.36179C18.5957 9.36179 19.1537 11.3396 19.1537 13.9112L19.1553 19.1462Z" fill="black"/>
</g>
<defs>
<clipPath id="clip0_180_790">
<rect width="24" height="24" fill="white"/>
</clipPath>
</defs>
</svg>
