<svg width="24" height="24" viewBox="0 0 24 24" fill="none" xmlns="http://www.w3.org/2000/svg">
<g clip-path="url(#clip0_883_5412)">
<path d="M13.3013 11.4538L14.38 12.5325V11.4538H13.3013ZM15.05 8.7738H12.37V10.0468H15.05C16.1957 10.0468 17.127 10.9781 17.127 12.1238C17.127 12.9747 16.6111 13.7117 15.8741 14.0266L16.8121 14.9646C17.7635 14.375 18.4 13.3231 18.4 12.1238C18.4 10.2746 16.8992 8.7738 15.05 8.7738ZM5 6.9447L7.0837 9.0284C5.8643 9.5242 5 10.7235 5 12.1238C5 13.973 6.5008 15.4738 8.35 15.4738H11.03V14.2008H8.35C7.2043 14.2008 6.273 13.2695 6.273 12.1238C6.273 11.0585 7.0837 10.1808 8.1222 10.0669L9.5091 11.4538H9.02V12.7938H10.8491L12.37 14.3147V15.4738H13.5291L16.2158 18.1605L17.1605 17.2158L5.9447 6L5 6.9447Z" fill="black"/>
</g>
<defs>
<clipPath id="clip0_883_5412">
<rect width="24" height="24" fill="white"/>
</clipPath>
</defs>
</svg>
