<svg width="24" height="24" viewBox="0 0 24 24" fill="none" xmlns="http://www.w3.org/2000/svg">
<g clip-path="url(#clip0_180_762)">
<path d="M19.2 5H4.8C4.32417 5.00262 3.86864 5.18812 3.53303 5.51537C3.1974 5.84349 3.00899 6.28712 3.009 6.75L3 17.25C3.00142 17.7137 3.19152 18.1582 3.52878 18.4855C3.86604 18.8136 4.32304 18.9983 4.8 19H19.2C19.6769 18.9983 20.1339 18.8136 20.4713 18.4855C20.8085 18.1582 20.9986 17.7137 21 17.25V6.75C20.9986 6.28625 20.8085 5.84176 20.4713 5.51451C20.1339 5.18639 19.6769 5.00175 19.2 5ZM19.2 8.5L12 12.875L4.8 8.5V6.75L12 11.125L19.2 6.75V8.5Z" fill="black"/>
</g>
<defs>
<clipPath id="clip0_180_762">
<rect width="24" height="24" fill="white"/>
</clipPath>
</defs>
</svg>
