<svg width="24" height="24" viewBox="0 0 24 24" fill="none" xmlns="http://www.w3.org/2000/svg">
<g clip-path="url(#clip0_180_776)">
<path d="M14.3684 5H3V6.99878H14.3684V5ZM14.3684 8.99756H3V10.9963H14.3684V8.99756ZM3 14.9939H10.5789V12.9951H3V14.9939ZM16.2632 5V13.175C15.6941 12.9631 15.0756 12.9471 14.4975 13.13C13.9195 13.3139 13.4117 13.6867 13.0479 14.1944C12.6841 14.7031 12.4831 15.3197 12.474 15.9563C12.465 16.5939 12.6483 17.2165 12.9976 17.7362C13.3468 18.2559 13.8437 18.6447 14.4163 18.8455C14.9889 19.0474 15.6075 19.0514 16.1824 18.8575C16.7573 18.6626 17.2587 18.2809 17.6138 17.7662C17.9691 17.2505 18.1596 16.6299 18.1579 15.9933V6.99878H21V5H16.2632Z" fill="black"/>
</g>
<defs>
<clipPath id="clip0_180_776">
<rect width="24" height="24" fill="white"/>
</clipPath>
</defs>
</svg>
