<svg width="24" height="24" viewBox="0 0 24 24" fill="none" xmlns="http://www.w3.org/2000/svg">
<g clip-path="url(#clip0_180_752)">
<path d="M12.332 2C10.2884 2.0002 8.29069 2.60639 6.59157 3.74191C4.89245 4.87744 3.5682 6.4913 2.78627 8.37943C2.00434 10.2676 1.79986 12.3451 2.19867 14.3495C2.59749 16.3538 3.58169 18.1949 5.02682 19.6399C6.47196 21.0849 8.31313 22.0689 10.3175 22.4675C12.3219 22.8661 14.3995 22.6615 16.2875 21.8794C18.1756 21.0972 19.7893 19.7728 20.9247 18.0736C22.06 16.3744 22.666 14.3766 22.666 12.333C22.6649 9.59267 21.5758 6.9649 19.638 5.02728C17.7002 3.08967 15.0723 2.0008 12.332 2ZM12.332 5.1C12.9451 5.1 13.5445 5.28181 14.0543 5.62244C14.5641 5.96308 14.9614 6.44723 15.196 7.01368C15.4307 7.58013 15.4921 8.20344 15.3724 8.80478C15.2528 9.40612 14.9576 9.95849 14.524 10.392C14.0905 10.8256 13.5381 11.1208 12.9368 11.2404C12.3354 11.36 11.7121 11.2987 11.1457 11.064C10.5792 10.8294 10.0951 10.4321 9.75445 9.92227C9.41382 9.41248 9.232 8.81312 9.232 8.2C9.232 7.37783 9.55861 6.58933 10.14 6.00797C10.7213 5.42661 11.5098 5.1 12.332 5.1ZM12.332 19.773C11.1043 19.773 9.89569 19.4691 8.81391 18.8886C7.73212 18.3081 6.81078 17.469 6.132 16.446C6.163 14.39 10.265 13.263 12.332 13.263C14.399 13.263 18.501 14.389 18.532 16.446C17.8532 17.469 16.9319 18.3081 15.8501 18.8886C14.7683 19.4691 13.5597 19.773 12.332 19.773Z" fill="black"/>
</g>
<defs>
<clipPath id="clip0_180_752">
<rect width="24" height="24" fill="white"/>
</clipPath>
</defs>
</svg>
