<svg width="24" height="24" viewBox="0 0 24 24" fill="none" xmlns="http://www.w3.org/2000/svg">
<g clip-path="url(#clip0_877_5411)">
<path d="M19 10.4444V5L16.9467 7.05333C15.6867 5.78556 13.9367 5 12 5C8.13444 5 5 8.13444 5 12C5 15.8656 8.13444 19 12 19C15.8656 19 19 15.8656 19 12H17.4444C17.4444 15.0022 15.0022 17.4444 12 17.4444C8.99778 17.4444 6.55556 15.0022 6.55556 12C6.55556 8.99778 8.99778 6.55556 12 6.55556C13.5011 6.55556 14.8622 7.17 15.85 8.15L13.5556 10.4444H19Z" fill="black"/>
</g>
<defs>
<clipPath id="clip0_877_5411">
<rect width="24" height="24" fill="white"/>
</clipPath>
</defs>
</svg>
