<svg width="24" height="24" viewBox="0 0 24 24" fill="none" xmlns="http://www.w3.org/2000/svg">
<path fill-rule="evenodd" clip-rule="evenodd" d="M14.786 13.333H14.26L14.073 13.153C14.7491 12.3691 15.1207 11.3682 15.12 10.333C15.12 9.76389 15.0079 9.20038 14.7901 8.67461C14.5723 8.14884 14.253 7.67112 13.8506 7.26875C13.4481 6.86638 12.9703 6.54724 12.4445 6.32954C11.9187 6.11185 11.3551 5.99987 10.786 6C9.69505 5.99947 8.64421 6.41145 7.84429 7.15332C7.04438 7.89519 6.55454 8.91207 6.47302 10H7.82002C7.89846 9.26793 8.24469 8.59066 8.79217 8.09837C9.33965 7.60608 10.0498 7.33349 10.786 7.33299C12.446 7.33299 13.786 8.67299 13.786 10.333C13.786 11.993 12.446 13.333 10.786 13.333C10.673 13.333 10.566 13.313 10.453 13.3V14.647C10.566 14.66 10.673 14.667 10.786 14.667C11.86 14.667 12.846 14.273 13.606 13.62L13.786 13.807V14.333L17.12 17.66L18.113 16.667L14.786 13.333Z" fill="black"/>
<path fill-rule="evenodd" clip-rule="evenodd" d="M8.766 11.2129L7.12 12.8599L5.473 11.2129L5 11.6869L6.646 13.3329L5 14.9799L5.473 15.4529L7.12 13.8069L8.766 15.4529L9.24 14.9799L7.593 13.3329L9.24 11.6869L8.766 11.2129Z" fill="black"/>
</svg>
