<svg width="24" height="24" viewBox="0 0 24 24" fill="none" xmlns="http://www.w3.org/2000/svg">
<path d="M14.5807 13.5526H14.0399L13.8477 13.3676C14.5992 12.4919 14.9822 11.3591 14.9163 10.2071C14.8504 9.05502 14.3408 7.9733 13.4944 7.189C12.6479 6.40471 11.5306 5.97884 10.3768 6.00081C9.22312 6.02278 8.12278 6.49088 7.30683 7.30683C6.49088 8.12278 6.02278 9.22312 6.00081 10.3768C5.97884 11.5306 6.40471 12.6479 7.189 13.4944C7.9733 14.3408 9.05502 14.8504 10.2071 14.9163C11.3591 14.9822 12.4919 14.5992 13.3676 13.8477L13.5526 14.0399V14.5817L16.9791 18.0021L18 16.9812L14.5807 13.5526ZM10.4684 13.5526C9.85842 13.5526 9.26213 13.3717 8.75494 13.0328C8.24774 12.6939 7.85244 12.2122 7.619 11.6487C7.38557 11.0851 7.32449 10.465 7.44349 9.86672C7.5625 9.26845 7.85624 8.7189 8.28757 8.28757C8.7189 7.85624 9.26845 7.5625 9.86672 7.44349C10.465 7.32449 11.0851 7.38557 11.6487 7.619C12.2122 7.85244 12.6939 8.24774 13.0328 8.75494C13.3717 9.26213 13.5526 9.85842 13.5526 10.4684C13.5526 11.2864 13.2277 12.0709 12.6493 12.6493C12.0709 13.2277 11.2864 13.5526 10.4684 13.5526Z" fill="black"/>
</svg>
