<svg width="24" height="24" viewBox="0 0 24 24" fill="none" xmlns="http://www.w3.org/2000/svg">
<g clip-path="url(#clip0_180_782)">
<path d="M21.9803 6.67999C21.979 6.31899 21.9458 5.95999 21.8812 5.60599C21.8093 5.17299 21.6725 4.75299 21.4753 4.35999C21.2591 3.94799 20.9777 3.57301 20.642 3.25101C20.1358 2.75501 19.5108 2.399 18.827 2.215C18.1982 2.063 17.552 1.99401 16.9053 2.01001V2H7.09511V2.01001C6.72728 2.00701 6.35954 2.02299 5.99343 2.05899C5.59233 2.10199 5.19749 2.19101 4.81675 2.32401C4.18974 2.56001 3.62713 2.93999 3.17453 3.43399C2.72193 3.92699 2.39208 4.52099 2.21171 5.16599C2.06007 5.78999 1.99114 6.432 2.00671 7.07401L2.00004 16.913C1.99877 17.359 2.02912 17.804 2.09087 18.246C2.15767 18.713 2.29566 19.167 2.50005 19.591C2.78854 20.159 3.19923 20.655 3.70256 21.044C4.06221 21.331 4.46958 21.551 4.90591 21.696C5.54651 21.894 6.2138 21.992 6.88428 21.987C7.30095 21.987 7.72346 22 8.14346 21.998C11.1927 21.986 14.2411 22.02 17.2903 21.979C17.6931 21.97 18.0946 21.928 18.4903 21.852C19.2381 21.72 19.9341 21.382 20.4995 20.875C21.1654 20.297 21.6303 19.522 21.827 18.663C21.9482 18.087 22.006 17.501 21.9995 16.913V16.796C21.9995 16.746 21.982 6.81099 21.9803 6.67999ZM19.302 15.927C19.1736 16.226 18.5278 16.475 17.4328 16.644C17.3303 16.66 17.2869 16.825 17.2278 17.097C17.2036 17.21 17.1786 17.32 17.1444 17.435C17.1342 17.483 17.1066 17.527 17.0667 17.556C17.0268 17.586 16.9774 17.6 16.9278 17.596H16.9103C16.8054 17.592 16.7011 17.579 16.5986 17.557C16.3285 17.502 16.0535 17.474 15.7777 17.474C15.5795 17.474 15.3816 17.491 15.1861 17.524C14.7734 17.628 14.3894 17.824 14.0627 18.097C13.5101 18.568 12.8159 18.841 12.0902 18.873C12.0485 18.873 12.0069 18.873 11.9785 18.873C11.9502 18.873 11.9302 18.873 11.9052 18.873C11.1801 18.842 10.4865 18.569 9.93432 18.098C9.60712 17.824 9.22263 17.628 8.80931 17.524C8.61377 17.491 8.41589 17.474 8.21763 17.474C7.94158 17.476 7.66654 17.507 7.39679 17.566C7.29439 17.59 7.19011 17.605 7.08511 17.611C7.03236 17.617 6.97919 17.604 6.93592 17.573C6.89265 17.542 6.86236 17.496 6.85094 17.445C6.81678 17.327 6.79178 17.214 6.76761 17.105C6.70761 16.831 6.66427 16.665 6.56261 16.649C5.46842 16.482 4.82175 16.232 4.69258 15.931C4.67952 15.901 4.6719 15.868 4.67008 15.836C4.66764 15.792 4.68126 15.75 4.70833 15.716C4.7354 15.682 4.77401 15.66 4.81675 15.652C5.72161 15.489 6.53704 15.004 7.11345 14.288C7.43058 13.921 7.69431 13.512 7.89679 13.071V13.063C7.95646 12.966 7.99409 12.856 8.00705 12.743C8.02001 12.629 8.00797 12.514 7.97179 12.406C7.83096 12.073 7.36345 11.926 7.05511 11.828C6.97845 11.803 6.90594 11.78 6.84761 11.758C6.57344 11.649 6.12343 11.424 6.18093 11.106C6.22691 10.987 6.30891 10.886 6.41546 10.816C6.52201 10.746 6.64776 10.711 6.77511 10.716C6.83702 10.715 6.89848 10.727 6.95511 10.752C7.18589 10.87 7.43946 10.937 7.69846 10.948C7.85224 10.959 8.00458 10.912 8.12596 10.817C8.11819 10.671 8.1093 10.525 8.0993 10.38C7.95852 9.394 8.01862 8.38999 8.27596 7.42899C8.57883 6.73799 9.07834 6.15199 9.71218 5.74399C10.346 5.33499 11.0861 5.12199 11.8402 5.13199H12.1352C12.8903 5.12199 13.6316 5.33501 14.2666 5.74301C14.9016 6.15201 15.4023 6.73799 15.7061 7.42899C15.9635 8.39199 16.0236 9.397 15.8827 10.383V10.43C15.8744 10.566 15.8661 10.695 15.8594 10.819C15.9697 10.906 16.1071 10.952 16.2478 10.949C16.4916 10.93 16.7295 10.864 16.9478 10.754C17.02 10.722 17.0981 10.707 17.1769 10.708C17.2663 10.708 17.3548 10.725 17.4378 10.758C17.5317 10.78 17.6169 10.83 17.6824 10.901C17.7478 10.972 17.7906 11.061 17.8053 11.156C17.8053 11.309 17.6944 11.537 17.1386 11.758C17.0811 11.78 17.0086 11.803 16.9311 11.828C16.6219 11.926 16.1553 12.078 16.0144 12.406C15.9782 12.514 15.9661 12.629 15.9791 12.743C15.992 12.856 16.0297 12.966 16.0894 13.063V13.071C16.3694 13.71 16.7934 14.276 17.3283 14.724C17.8632 15.172 18.4944 15.49 19.1728 15.654C19.2155 15.661 19.2541 15.684 19.2812 15.718C19.3083 15.752 19.3219 15.794 19.3195 15.837C19.3189 15.868 19.3133 15.899 19.3028 15.927H19.302Z" fill="black"/>
</g>
<defs>
<clipPath id="clip0_180_782">
<rect width="24" height="24" fill="white"/>
</clipPath>
</defs>
</svg>
