<svg width="24" height="24" viewBox="0 0 24 24" fill="none" xmlns="http://www.w3.org/2000/svg">
<g clip-path="url(#clip0_886_5397)">
<path fill-rule="evenodd" clip-rule="evenodd" d="M11 2H12.5V4.01557C16.336 4.25506 19.4619 7.22996 19.9374 11H20.16H22.32V12.5H20.16H19.9844C19.7344 16.5041 16.5041 19.7344 12.5 19.9844V21.32H11V19.9374C7.22996 19.4619 4.25506 16.336 4.01557 12.5H2V11H4.06264C4.5173 7.39516 7.39516 4.5173 11 4.06264V2ZM5.61935 12.5H6.16H8.32V11H6.16H5.67808C6.10841 8.27089 8.27089 6.10841 11 5.67808V6.16V8.32H12.5V6.16V5.61935C15.4618 5.84949 17.8656 8.10621 18.3219 11H16V12.5H18.3806C18.1374 15.6304 15.6304 18.1374 12.5 18.3806V15H11V18.3219C8.10621 17.8656 5.84949 15.4618 5.61935 12.5Z" fill="black"/>
</g>
<defs>
<clipPath id="clip0_886_5397">
<rect width="24" height="24" fill="white"/>
</clipPath>
</defs>
</svg>
