<svg width="24" height="24" viewBox="0 0 24 24" fill="none" xmlns="http://www.w3.org/2000/svg">
<g clip-path="url(#clip0_180_788)">
<path d="M19.8564 2H4.14277C3.57454 2.00021 3.02964 2.22604 2.62784 2.62786C2.22603 3.02968 2.00021 3.5746 2 4.14286L2 19.8571C2.00021 20.4254 2.22603 20.9703 2.62784 21.3721C3.02964 21.774 3.57454 21.9998 4.14277 22H19.8564C20.4248 22 20.9699 21.7743 21.3719 21.3724C21.7739 20.9706 21.9998 20.4255 22 19.8571V4.14286C21.9998 3.57446 21.7739 3.02942 21.3719 2.62758C20.9699 2.22574 20.4248 2 19.8564 2ZM17.673 9.08945C17.6818 9.21461 17.6818 9.34375 17.6818 9.46891C17.6893 10.565 17.479 11.6517 17.063 12.6658C16.647 13.6799 16.0337 14.6013 15.2586 15.3764C14.4836 16.1514 13.5623 16.7648 12.5482 17.1808C11.5341 17.5968 10.4475 17.8071 9.35143 17.7996C7.75807 17.8033 6.19741 17.3477 4.85623 16.4874C5.09052 16.5128 5.32607 16.5248 5.56172 16.5233C6.87935 16.5264 8.15971 16.0861 9.19678 15.2733C8.58565 15.262 7.99333 15.06 7.50266 14.6955C7.01198 14.331 6.64747 13.8223 6.46012 13.2404C6.89951 13.3162 7.34997 13.298 7.78182 13.187C7.11923 13.0521 6.52377 12.6919 6.09656 12.1678C5.66934 11.6436 5.43671 10.9878 5.43816 10.3115V10.2757C5.84309 10.5023 6.29613 10.6294 6.75985 10.6464C6.35834 10.3794 6.02912 10.0173 5.80156 9.59219C5.57401 9.1671 5.45519 8.69231 5.4557 8.21014C5.45337 7.69061 5.59105 7.18005 5.85428 6.73214C6.58871 7.63678 7.5051 8.37693 8.544 8.90457C9.58291 9.43222 10.7211 9.73557 11.8848 9.79496C11.7387 9.16642 11.8039 8.50726 12.0702 7.91949C12.3366 7.33173 12.7892 6.84815 13.3581 6.54359C13.9269 6.23903 14.5803 6.13049 15.2171 6.23475C15.8539 6.33902 16.4386 6.65029 16.8806 7.12038C17.5368 6.99549 18.1662 6.757 18.7404 6.41566C18.5221 7.09146 18.0649 7.66452 17.4546 8.02758C18.0368 7.96158 18.6057 7.80812 19.1422 7.57239C18.7439 8.15871 18.2474 8.67192 17.6746 9.08945H17.673Z" fill="black"/>
</g>
<defs>
<clipPath id="clip0_180_788">
<rect width="24" height="24" fill="white"/>
</clipPath>
</defs>
</svg>
