<svg width="24" height="24" viewBox="0 0 24 24" fill="none" xmlns="http://www.w3.org/2000/svg">
<g clip-path="url(#clip0_180_772)">
<path d="M12 4.00003C9.95583 3.99626 7.93125 4.4085 6.04321 5.2132C4.15517 6.01791 2.44109 7.19813 1 8.68707L12 20L23 8.68707C21.5589 7.19813 19.8448 6.01791 17.9568 5.2132C16.0687 4.4085 14.0442 3.99626 12 4.00003ZM12 7.76473C9.47721 7.76567 7.02059 8.5939 4.9875 10.1271L3.67667 8.77179C6.06749 6.89791 8.99204 5.88238 12 5.88238C15.0079 5.88238 17.9325 6.89791 20.3233 8.77179L19.0125 10.1177C16.9765 8.59108 14.5211 7.76755 12 7.76473Z" fill="black"/>
</g>
<defs>
<clipPath id="clip0_180_772">
<rect width="24" height="24" fill="white"/>
</clipPath>
</defs>
</svg>
